<mxfile host="app.diagrams.net" agent="Mozilla/5.0 (Windows NT 10.0; Win64; x64; rv:130.0) Gecko/20100101 Firefox/130.0" version="24.7.14">
  <diagram name="Page-1" id="TX9XbIHk7eYWWUNDwRXn">
    <mxGraphModel dx="1434" dy="754" grid="1" gridSize="10" guides="1" tooltips="1" connect="1" arrows="1" fold="1" page="1" pageScale="1" pageWidth="850" pageHeight="1100" math="0" shadow="0">
      <root>
        <mxCell id="0" />
        <mxCell id="1" parent="0" />
        <mxCell id="VriAh3fz-FV6WPdwQD_c-1" value="Doctors" style="shape=umlActor;verticalLabelPosition=bottom;verticalAlign=top;html=1;outlineConnect=0;fillColor=#dae8fc;strokeColor=#6c8ebf;" parent="1" vertex="1">
          <mxGeometry x="60" y="500" width="30" height="60" as="geometry" />
        </mxCell>
        <mxCell id="U8pV0hxq8biJtbgsrZ2j-1" value="Administrator" style="shape=umlActor;verticalLabelPosition=bottom;verticalAlign=top;html=1;outlineConnect=0;fillColor=#dae8fc;strokeColor=#6c8ebf;" parent="1" vertex="1">
          <mxGeometry x="60" y="120" width="30" height="60" as="geometry" />
        </mxCell>
        <mxCell id="U8pV0hxq8biJtbgsrZ2j-3" value="Staff" style="shape=umlActor;verticalLabelPosition=bottom;verticalAlign=top;html=1;outlineConnect=0;fillColor=#dae8fc;strokeColor=#6c8ebf;" parent="1" vertex="1">
          <mxGeometry x="60" y="680" width="30" height="60" as="geometry" />
        </mxCell>
        <mxCell id="U8pV0hxq8biJtbgsrZ2j-4" value="Patients" style="shape=umlActor;verticalLabelPosition=bottom;verticalAlign=top;html=1;outlineConnect=0;fillColor=#dae8fc;strokeColor=#6c8ebf;" parent="1" vertex="1">
          <mxGeometry x="60" y="320" width="30" height="60" as="geometry" />
        </mxCell>
        <mxCell id="bKu-A3nTddVhj0ViHo6k-167" value="" style="swimlane;startSize=0;fillColor=#f5f5f5;fontColor=#333333;strokeColor=#666666;" parent="1" vertex="1">
          <mxGeometry x="130" y="40" width="460" height="760" as="geometry" />
        </mxCell>
        <mxCell id="GxlmeI8i6_NLVrf2-pUB-4" value="Verify Account" style="ellipse;whiteSpace=wrap;html=1;" parent="bKu-A3nTddVhj0ViHo6k-167" vertex="1">
          <mxGeometry x="110" y="180" width="90" height="30" as="geometry" />
        </mxCell>
        <mxCell id="GxlmeI8i6_NLVrf2-pUB-8" value="Delete Account" style="ellipse;whiteSpace=wrap;html=1;" parent="bKu-A3nTddVhj0ViHo6k-167" vertex="1">
          <mxGeometry x="110" y="70" width="100" height="40" as="geometry" />
        </mxCell>
        <mxCell id="GxlmeI8i6_NLVrf2-pUB-3" value="Create Account" style="ellipse;whiteSpace=wrap;html=1;" parent="bKu-A3nTddVhj0ViHo6k-167" vertex="1">
          <mxGeometry x="110" y="230" width="100" height="60" as="geometry" />
        </mxCell>
        <mxCell id="GxlmeI8i6_NLVrf2-pUB-5" value="" style="endArrow=classic;html=1;rounded=0;entryX=0.5;entryY=1;entryDx=0;entryDy=0;exitX=0.29;exitY=0.033;exitDx=0;exitDy=0;exitPerimeter=0;" parent="bKu-A3nTddVhj0ViHo6k-167" source="GxlmeI8i6_NLVrf2-pUB-3" target="GxlmeI8i6_NLVrf2-pUB-4" edge="1">
          <mxGeometry width="50" height="50" relative="1" as="geometry">
            <mxPoint x="270" y="310" as="sourcePoint" />
            <mxPoint x="320" y="260" as="targetPoint" />
          </mxGeometry>
        </mxCell>
        <mxCell id="GxlmeI8i6_NLVrf2-pUB-6" value="Extends" style="edgeLabel;html=1;align=center;verticalAlign=middle;resizable=0;points=[];" parent="GxlmeI8i6_NLVrf2-pUB-5" vertex="1" connectable="0">
          <mxGeometry x="-0.0425" y="3" relative="1" as="geometry">
            <mxPoint x="1" as="offset" />
          </mxGeometry>
        </mxCell>
        <mxCell id="GxlmeI8i6_NLVrf2-pUB-14" value="Modify Own Account" style="ellipse;whiteSpace=wrap;html=1;" parent="bKu-A3nTddVhj0ViHo6k-167" vertex="1">
          <mxGeometry x="110" y="370" width="90" height="50" as="geometry" />
        </mxCell>
        <mxCell id="GxlmeI8i6_NLVrf2-pUB-19" value="Prescribe Exams" style="ellipse;whiteSpace=wrap;html=1;" parent="bKu-A3nTddVhj0ViHo6k-167" vertex="1">
          <mxGeometry x="110" y="440" width="90" height="50" as="geometry" />
        </mxCell>
        <mxCell id="GxlmeI8i6_NLVrf2-pUB-21" value="Enter Test Results" style="ellipse;whiteSpace=wrap;html=1;" parent="bKu-A3nTddVhj0ViHo6k-167" vertex="1">
          <mxGeometry x="270" y="610" width="105" height="40" as="geometry" />
        </mxCell>
        <mxCell id="GxlmeI8i6_NLVrf2-pUB-23" value="Delete Test Results" style="ellipse;whiteSpace=wrap;html=1;" parent="bKu-A3nTddVhj0ViHo6k-167" vertex="1">
          <mxGeometry x="110" y="10" width="100" height="50" as="geometry" />
        </mxCell>
        <mxCell id="GxlmeI8i6_NLVrf2-pUB-25" value="Modify Test Results" style="ellipse;whiteSpace=wrap;html=1;" parent="bKu-A3nTddVhj0ViHo6k-167" vertex="1">
          <mxGeometry x="270" y="695" width="120" height="40" as="geometry" />
        </mxCell>
        <mxCell id="GxlmeI8i6_NLVrf2-pUB-27" value="Search Test Results" style="ellipse;whiteSpace=wrap;html=1;" parent="bKu-A3nTddVhj0ViHo6k-167" vertex="1">
          <mxGeometry x="110" y="300" width="90" height="50" as="geometry" />
        </mxCell>
        <mxCell id="GxlmeI8i6_NLVrf2-pUB-28" value="View Test Results" style="ellipse;whiteSpace=wrap;html=1;" parent="bKu-A3nTddVhj0ViHo6k-167" vertex="1">
          <mxGeometry x="270" y="300" width="90" height="50" as="geometry" />
        </mxCell>
        <mxCell id="GxlmeI8i6_NLVrf2-pUB-29" value="" style="endArrow=none;html=1;rounded=0;entryX=0;entryY=0.5;entryDx=0;entryDy=0;exitX=1;exitY=0.5;exitDx=0;exitDy=0;startArrow=classic;startFill=1;endFill=0;" parent="bKu-A3nTddVhj0ViHo6k-167" source="GxlmeI8i6_NLVrf2-pUB-27" target="GxlmeI8i6_NLVrf2-pUB-28" edge="1">
          <mxGeometry width="50" height="50" relative="1" as="geometry">
            <mxPoint x="270" y="410" as="sourcePoint" />
            <mxPoint x="320" y="360" as="targetPoint" />
          </mxGeometry>
        </mxCell>
        <mxCell id="GxlmeI8i6_NLVrf2-pUB-30" value="Extends" style="edgeLabel;html=1;align=center;verticalAlign=middle;resizable=0;points=[];" parent="GxlmeI8i6_NLVrf2-pUB-29" vertex="1" connectable="0">
          <mxGeometry x="-0.2" y="3" relative="1" as="geometry">
            <mxPoint as="offset" />
          </mxGeometry>
        </mxCell>
        <mxCell id="GxlmeI8i6_NLVrf2-pUB-33" value="Manage Smart Monitors" style="ellipse;whiteSpace=wrap;html=1;" parent="bKu-A3nTddVhj0ViHo6k-167" vertex="1">
          <mxGeometry x="110" y="500" width="90" height="50" as="geometry" />
        </mxCell>
        <mxCell id="GxlmeI8i6_NLVrf2-pUB-35" value="Delete Monitor" style="ellipse;whiteSpace=wrap;html=1;" parent="bKu-A3nTddVhj0ViHo6k-167" vertex="1">
          <mxGeometry x="270" y="505" width="105" height="40" as="geometry" />
        </mxCell>
        <mxCell id="GxlmeI8i6_NLVrf2-pUB-36" value="Modify Monitor" style="ellipse;whiteSpace=wrap;html=1;" parent="bKu-A3nTddVhj0ViHo6k-167" vertex="1">
          <mxGeometry x="270" y="560" width="105" height="40" as="geometry" />
        </mxCell>
        <mxCell id="GxlmeI8i6_NLVrf2-pUB-41" value="" style="endArrow=none;html=1;rounded=0;exitX=1;exitY=0.5;exitDx=0;exitDy=0;entryX=0;entryY=0.5;entryDx=0;entryDy=0;startArrow=block;startFill=0;endFill=0;" parent="bKu-A3nTddVhj0ViHo6k-167" source="GxlmeI8i6_NLVrf2-pUB-33" target="GxlmeI8i6_NLVrf2-pUB-35" edge="1">
          <mxGeometry width="50" height="50" relative="1" as="geometry">
            <mxPoint x="270" y="410" as="sourcePoint" />
            <mxPoint x="320" y="360" as="targetPoint" />
          </mxGeometry>
        </mxCell>
        <mxCell id="GxlmeI8i6_NLVrf2-pUB-42" value="" style="endArrow=none;html=1;rounded=0;exitX=1;exitY=1;exitDx=0;exitDy=0;entryX=0;entryY=0.5;entryDx=0;entryDy=0;startArrow=block;startFill=0;endFill=0;" parent="bKu-A3nTddVhj0ViHo6k-167" source="GxlmeI8i6_NLVrf2-pUB-33" target="GxlmeI8i6_NLVrf2-pUB-36" edge="1">
          <mxGeometry width="50" height="50" relative="1" as="geometry">
            <mxPoint x="270" y="410" as="sourcePoint" />
            <mxPoint x="320" y="360" as="targetPoint" />
          </mxGeometry>
        </mxCell>
        <mxCell id="GxlmeI8i6_NLVrf2-pUB-43" value="Manage Reports" style="ellipse;whiteSpace=wrap;html=1;" parent="bKu-A3nTddVhj0ViHo6k-167" vertex="1">
          <mxGeometry x="110" y="120" width="100" height="40" as="geometry" />
        </mxCell>
        <mxCell id="GxlmeI8i6_NLVrf2-pUB-44" value="Generate Monthly/Yearly Patient Report" style="ellipse;whiteSpace=wrap;html=1;" parent="bKu-A3nTddVhj0ViHo6k-167" vertex="1">
          <mxGeometry x="270" y="30" width="140" height="60" as="geometry" />
        </mxCell>
        <mxCell id="GxlmeI8i6_NLVrf2-pUB-45" value="View Monthly/Yearly Patient Report" style="ellipse;whiteSpace=wrap;html=1;" parent="bKu-A3nTddVhj0ViHo6k-167" vertex="1">
          <mxGeometry x="300" y="110" width="140" height="60" as="geometry" />
        </mxCell>
        <mxCell id="GxlmeI8i6_NLVrf2-pUB-46" value="Generate Patient Prediction Report" style="ellipse;whiteSpace=wrap;html=1;" parent="bKu-A3nTddVhj0ViHo6k-167" vertex="1">
          <mxGeometry x="270" y="180" width="135" height="50" as="geometry" />
        </mxCell>
        <mxCell id="GxlmeI8i6_NLVrf2-pUB-48" value="" style="endArrow=none;html=1;rounded=0;entryX=0;entryY=0.5;entryDx=0;entryDy=0;exitX=0.93;exitY=0.8;exitDx=0;exitDy=0;startArrow=block;startFill=0;endFill=0;exitPerimeter=0;" parent="bKu-A3nTddVhj0ViHo6k-167" source="GxlmeI8i6_NLVrf2-pUB-43" target="GxlmeI8i6_NLVrf2-pUB-46" edge="1">
          <mxGeometry width="50" height="50" relative="1" as="geometry">
            <mxPoint x="270" y="350" as="sourcePoint" />
            <mxPoint x="320" y="300" as="targetPoint" />
          </mxGeometry>
        </mxCell>
        <mxCell id="GxlmeI8i6_NLVrf2-pUB-51" value="" style="endArrow=none;html=1;rounded=0;entryX=0;entryY=0.5;entryDx=0;entryDy=0;exitX=0.96;exitY=0.25;exitDx=0;exitDy=0;startArrow=block;startFill=0;endFill=0;exitPerimeter=0;" parent="bKu-A3nTddVhj0ViHo6k-167" source="GxlmeI8i6_NLVrf2-pUB-43" target="GxlmeI8i6_NLVrf2-pUB-44" edge="1">
          <mxGeometry width="50" height="50" relative="1" as="geometry">
            <mxPoint x="270" y="350" as="sourcePoint" />
            <mxPoint x="320" y="300" as="targetPoint" />
          </mxGeometry>
        </mxCell>
        <mxCell id="GxlmeI8i6_NLVrf2-pUB-49" value="" style="endArrow=none;html=1;rounded=0;entryX=0;entryY=0.5;entryDx=0;entryDy=0;exitX=1;exitY=0.5;exitDx=0;exitDy=0;startArrow=block;startFill=0;endFill=0;" parent="bKu-A3nTddVhj0ViHo6k-167" source="GxlmeI8i6_NLVrf2-pUB-43" target="GxlmeI8i6_NLVrf2-pUB-45" edge="1">
          <mxGeometry width="50" height="50" relative="1" as="geometry">
            <mxPoint x="310" y="110" as="sourcePoint" />
            <mxPoint x="320" y="300" as="targetPoint" />
          </mxGeometry>
        </mxCell>
        <mxCell id="GxlmeI8i6_NLVrf2-pUB-53" value="View Patient Prediction Report" style="ellipse;whiteSpace=wrap;html=1;" parent="bKu-A3nTddVhj0ViHo6k-167" vertex="1">
          <mxGeometry x="110" y="560" width="90" height="70" as="geometry" />
        </mxCell>
        <mxCell id="GxlmeI8i6_NLVrf2-pUB-34" value="Create Monitor" style="ellipse;whiteSpace=wrap;html=1;" parent="bKu-A3nTddVhj0ViHo6k-167" vertex="1">
          <mxGeometry x="270" y="445" width="105" height="40" as="geometry" />
        </mxCell>
        <mxCell id="GxlmeI8i6_NLVrf2-pUB-40" value="" style="endArrow=none;html=1;rounded=0;exitX=0.956;exitY=0.26;exitDx=0;exitDy=0;entryX=0;entryY=0.5;entryDx=0;entryDy=0;startArrow=block;startFill=0;endFill=0;exitPerimeter=0;" parent="bKu-A3nTddVhj0ViHo6k-167" source="GxlmeI8i6_NLVrf2-pUB-33" target="GxlmeI8i6_NLVrf2-pUB-34" edge="1">
          <mxGeometry width="50" height="50" relative="1" as="geometry">
            <mxPoint x="270" y="410" as="sourcePoint" />
            <mxPoint x="320" y="360" as="targetPoint" />
          </mxGeometry>
        </mxCell>
        <mxCell id="GxlmeI8i6_NLVrf2-pUB-56" value="Manage Test Results" style="ellipse;whiteSpace=wrap;html=1;" parent="bKu-A3nTddVhj0ViHo6k-167" vertex="1">
          <mxGeometry x="110" y="645" width="100" height="50" as="geometry" />
        </mxCell>
        <mxCell id="GxlmeI8i6_NLVrf2-pUB-26" value="" style="endArrow=none;html=1;rounded=0;entryX=0;entryY=0.5;entryDx=0;entryDy=0;exitX=0.9;exitY=0.72;exitDx=0;exitDy=0;startArrow=block;startFill=0;endFill=0;exitPerimeter=0;" parent="bKu-A3nTddVhj0ViHo6k-167" source="GxlmeI8i6_NLVrf2-pUB-56" target="GxlmeI8i6_NLVrf2-pUB-25" edge="1">
          <mxGeometry width="50" height="50" relative="1" as="geometry">
            <mxPoint x="270" y="420" as="sourcePoint" />
            <mxPoint x="320" y="370" as="targetPoint" />
          </mxGeometry>
        </mxCell>
        <mxCell id="GxlmeI8i6_NLVrf2-pUB-22" value="" style="endArrow=none;html=1;rounded=0;exitX=0.93;exitY=0.32;exitDx=0;exitDy=0;entryX=0;entryY=0.5;entryDx=0;entryDy=0;startArrow=block;startFill=0;endFill=0;exitPerimeter=0;" parent="bKu-A3nTddVhj0ViHo6k-167" source="GxlmeI8i6_NLVrf2-pUB-56" target="GxlmeI8i6_NLVrf2-pUB-21" edge="1">
          <mxGeometry width="50" height="50" relative="1" as="geometry">
            <mxPoint x="270" y="440" as="sourcePoint" />
            <mxPoint x="320" y="390" as="targetPoint" />
          </mxGeometry>
        </mxCell>
        <mxCell id="bKu-A3nTddVhj0ViHo6k-171" value="" style="rounded=1;whiteSpace=wrap;html=1;shadow=0;strokeWidth=0;fillColor=none;strokeColor=none;" parent="1" vertex="1">
          <mxGeometry x="460" y="1170" width="120" height="40" as="geometry" />
        </mxCell>
        <mxCell id="GxlmeI8i6_NLVrf2-pUB-9" value="" style="endArrow=none;html=1;rounded=0;entryX=0;entryY=0.5;entryDx=0;entryDy=0;exitX=0.5;exitY=0.5;exitDx=0;exitDy=0;exitPerimeter=0;strokeColor=default;endFill=0;" parent="1" source="U8pV0hxq8biJtbgsrZ2j-4" target="GxlmeI8i6_NLVrf2-pUB-3" edge="1">
          <mxGeometry width="50" height="50" relative="1" as="geometry">
            <mxPoint x="400" y="360" as="sourcePoint" />
            <mxPoint x="450" y="310" as="targetPoint" />
          </mxGeometry>
        </mxCell>
        <mxCell id="GxlmeI8i6_NLVrf2-pUB-10" value="" style="endArrow=none;html=1;rounded=0;exitX=0.5;exitY=0.5;exitDx=0;exitDy=0;exitPerimeter=0;entryX=0;entryY=0.5;entryDx=0;entryDy=0;strokeColor=default;endFill=0;" parent="1" source="U8pV0hxq8biJtbgsrZ2j-1" target="GxlmeI8i6_NLVrf2-pUB-8" edge="1">
          <mxGeometry width="50" height="50" relative="1" as="geometry">
            <mxPoint x="400" y="360" as="sourcePoint" />
            <mxPoint x="450" y="310" as="targetPoint" />
          </mxGeometry>
        </mxCell>
        <mxCell id="GxlmeI8i6_NLVrf2-pUB-12" value="" style="endArrow=none;html=1;rounded=0;exitX=0.5;exitY=0.5;exitDx=0;exitDy=0;exitPerimeter=0;entryX=0.02;entryY=0.35;entryDx=0;entryDy=0;entryPerimeter=0;strokeColor=default;endFill=0;" parent="1" source="U8pV0hxq8biJtbgsrZ2j-1" target="GxlmeI8i6_NLVrf2-pUB-3" edge="1">
          <mxGeometry width="50" height="50" relative="1" as="geometry">
            <mxPoint x="400" y="360" as="sourcePoint" />
            <mxPoint x="240" y="310" as="targetPoint" />
          </mxGeometry>
        </mxCell>
        <mxCell id="GxlmeI8i6_NLVrf2-pUB-13" value="" style="endArrow=none;html=1;rounded=0;exitX=0.5;exitY=0.5;exitDx=0;exitDy=0;exitPerimeter=0;entryX=0;entryY=0.286;entryDx=0;entryDy=0;entryPerimeter=0;strokeColor=default;endFill=0;" parent="1" source="U8pV0hxq8biJtbgsrZ2j-1" target="GxlmeI8i6_NLVrf2-pUB-4" edge="1">
          <mxGeometry width="50" height="50" relative="1" as="geometry">
            <mxPoint x="400" y="330" as="sourcePoint" />
            <mxPoint x="398" y="220" as="targetPoint" />
          </mxGeometry>
        </mxCell>
        <mxCell id="GxlmeI8i6_NLVrf2-pUB-16" value="" style="endArrow=none;html=1;rounded=0;exitX=0.5;exitY=0.5;exitDx=0;exitDy=0;exitPerimeter=0;entryX=0;entryY=0.5;entryDx=0;entryDy=0;strokeColor=default;endFill=0;" parent="1" source="U8pV0hxq8biJtbgsrZ2j-4" target="GxlmeI8i6_NLVrf2-pUB-14" edge="1">
          <mxGeometry width="50" height="50" relative="1" as="geometry">
            <mxPoint x="400" y="510" as="sourcePoint" />
            <mxPoint x="450" y="460" as="targetPoint" />
          </mxGeometry>
        </mxCell>
        <mxCell id="GxlmeI8i6_NLVrf2-pUB-17" value="" style="endArrow=none;html=1;rounded=0;exitX=0.5;exitY=0.5;exitDx=0;exitDy=0;exitPerimeter=0;entryX=0.07;entryY=0.75;entryDx=0;entryDy=0;entryPerimeter=0;strokeColor=default;endFill=0;" parent="1" source="U8pV0hxq8biJtbgsrZ2j-3" target="GxlmeI8i6_NLVrf2-pUB-14" edge="1">
          <mxGeometry width="50" height="50" relative="1" as="geometry">
            <mxPoint x="400" y="510" as="sourcePoint" />
            <mxPoint x="450" y="460" as="targetPoint" />
          </mxGeometry>
        </mxCell>
        <mxCell id="GxlmeI8i6_NLVrf2-pUB-18" value="" style="endArrow=none;html=1;rounded=0;exitX=0.5;exitY=0.5;exitDx=0;exitDy=0;exitPerimeter=0;entryX=-0.01;entryY=0.633;entryDx=0;entryDy=0;entryPerimeter=0;strokeColor=default;endFill=0;" parent="1" source="VriAh3fz-FV6WPdwQD_c-1" target="GxlmeI8i6_NLVrf2-pUB-14" edge="1">
          <mxGeometry width="50" height="50" relative="1" as="geometry">
            <mxPoint x="400" y="510" as="sourcePoint" />
            <mxPoint x="450" y="460" as="targetPoint" />
          </mxGeometry>
        </mxCell>
        <mxCell id="GxlmeI8i6_NLVrf2-pUB-20" value="" style="endArrow=none;html=1;rounded=0;exitX=0.5;exitY=0.5;exitDx=0;exitDy=0;exitPerimeter=0;entryX=0;entryY=0.5;entryDx=0;entryDy=0;strokeColor=default;endFill=0;" parent="1" source="VriAh3fz-FV6WPdwQD_c-1" target="GxlmeI8i6_NLVrf2-pUB-19" edge="1">
          <mxGeometry width="50" height="50" relative="1" as="geometry">
            <mxPoint x="400" y="480" as="sourcePoint" />
            <mxPoint x="450" y="430" as="targetPoint" />
          </mxGeometry>
        </mxCell>
        <mxCell id="GxlmeI8i6_NLVrf2-pUB-24" value="" style="endArrow=none;html=1;rounded=0;exitX=0.5;exitY=0.5;exitDx=0;exitDy=0;exitPerimeter=0;entryX=0;entryY=0.5;entryDx=0;entryDy=0;strokeColor=default;endFill=0;" parent="1" source="U8pV0hxq8biJtbgsrZ2j-1" target="GxlmeI8i6_NLVrf2-pUB-23" edge="1">
          <mxGeometry width="50" height="50" relative="1" as="geometry">
            <mxPoint x="400" y="360" as="sourcePoint" />
            <mxPoint x="450" y="310" as="targetPoint" />
          </mxGeometry>
        </mxCell>
        <mxCell id="GxlmeI8i6_NLVrf2-pUB-31" value="" style="endArrow=none;html=1;rounded=0;entryX=0;entryY=0.5;entryDx=0;entryDy=0;exitX=0.5;exitY=0.5;exitDx=0;exitDy=0;exitPerimeter=0;strokeColor=default;endFill=0;" parent="1" source="U8pV0hxq8biJtbgsrZ2j-4" target="GxlmeI8i6_NLVrf2-pUB-27" edge="1">
          <mxGeometry width="50" height="50" relative="1" as="geometry">
            <mxPoint x="400" y="480" as="sourcePoint" />
            <mxPoint x="450" y="430" as="targetPoint" />
          </mxGeometry>
        </mxCell>
        <mxCell id="GxlmeI8i6_NLVrf2-pUB-32" value="" style="endArrow=none;html=1;rounded=0;exitX=0.5;exitY=0.5;exitDx=0;exitDy=0;exitPerimeter=0;strokeColor=default;endFill=0;" parent="1" source="VriAh3fz-FV6WPdwQD_c-1" edge="1">
          <mxGeometry width="50" height="50" relative="1" as="geometry">
            <mxPoint x="400" y="480" as="sourcePoint" />
            <mxPoint x="250" y="380" as="targetPoint" />
          </mxGeometry>
        </mxCell>
        <mxCell id="GxlmeI8i6_NLVrf2-pUB-38" value="" style="endArrow=none;html=1;rounded=0;exitX=0.5;exitY=0.5;exitDx=0;exitDy=0;exitPerimeter=0;entryX=0;entryY=0.5;entryDx=0;entryDy=0;strokeColor=default;endFill=0;" parent="1" source="VriAh3fz-FV6WPdwQD_c-1" target="GxlmeI8i6_NLVrf2-pUB-33" edge="1">
          <mxGeometry width="50" height="50" relative="1" as="geometry">
            <mxPoint x="400" y="460" as="sourcePoint" />
            <mxPoint x="450" y="410" as="targetPoint" />
          </mxGeometry>
        </mxCell>
        <mxCell id="GxlmeI8i6_NLVrf2-pUB-52" value="" style="endArrow=none;html=1;rounded=0;exitX=0.5;exitY=0.5;exitDx=0;exitDy=0;exitPerimeter=0;entryX=0;entryY=0.5;entryDx=0;entryDy=0;strokeColor=default;endFill=0;" parent="1" source="U8pV0hxq8biJtbgsrZ2j-1" target="GxlmeI8i6_NLVrf2-pUB-43" edge="1">
          <mxGeometry width="50" height="50" relative="1" as="geometry">
            <mxPoint x="400" y="400" as="sourcePoint" />
            <mxPoint x="450" y="350" as="targetPoint" />
          </mxGeometry>
        </mxCell>
        <mxCell id="GxlmeI8i6_NLVrf2-pUB-57" value="" style="endArrow=none;html=1;rounded=0;exitX=0.5;exitY=0.5;exitDx=0;exitDy=0;exitPerimeter=0;entryX=0;entryY=0.5;entryDx=0;entryDy=0;strokeColor=default;endFill=0;" parent="1" source="U8pV0hxq8biJtbgsrZ2j-3" target="GxlmeI8i6_NLVrf2-pUB-56" edge="1">
          <mxGeometry width="50" height="50" relative="1" as="geometry">
            <mxPoint x="400" y="600" as="sourcePoint" />
            <mxPoint x="450" y="550" as="targetPoint" />
          </mxGeometry>
        </mxCell>
        <mxCell id="GxlmeI8i6_NLVrf2-pUB-58" value="" style="endArrow=none;html=1;rounded=0;exitX=0.5;exitY=0.5;exitDx=0;exitDy=0;exitPerimeter=0;entryX=0;entryY=0.5;entryDx=0;entryDy=0;strokeColor=default;endFill=0;" parent="1" source="VriAh3fz-FV6WPdwQD_c-1" target="GxlmeI8i6_NLVrf2-pUB-53" edge="1">
          <mxGeometry width="50" height="50" relative="1" as="geometry">
            <mxPoint x="400" y="630" as="sourcePoint" />
            <mxPoint x="450" y="580" as="targetPoint" />
          </mxGeometry>
        </mxCell>
        <mxCell id="bKu-A3nTddVhj0ViHo6k-169" value="Online Health Monitoring System" style="rounded=1;whiteSpace=wrap;html=1;" parent="1" vertex="1">
          <mxGeometry x="185" y="10" width="350" height="30" as="geometry" />
        </mxCell>
      </root>
    </mxGraphModel>
  </diagram>
</mxfile>
